<svg width="586" height="225" viewBox="0 0 586 225" fill="none" xmlns="http://www.w3.org/2000/svg">
    <g clip-path="url(#clip0_9_17)">
        <path
            d="M139.098 0C116.213 0 94.2656 9.07538 78.0837 25.2297L25.2728 77.9505C9.09089 94.1048 0 116.015 0 138.86C0 186.434 38.632 225 86.287 225C109.172 225 131.119 215.924 147.301 199.77L183.83 163.303C183.831 163.304 183.83 163.302 183.83 163.303L290.265 57.0495C297.994 49.3343 308.476 45 319.405 45C337.704 45 353.217 56.9056 358.595 73.3805L392.186 39.8472C376.862 15.8876 349.992 0 319.405 0C296.521 0 274.573 9.07538 258.391 25.2297L115.427 167.951C107.699 175.666 97.2166 180 86.287 180C63.5272 180 45.0769 161.581 45.0769 138.86C45.0769 127.949 49.4187 117.485 57.147 109.77L109.958 57.0495C117.686 49.3343 128.168 45 139.098 45C157.397 45 172.909 56.9061 178.287 73.3816L211.879 39.848C196.555 15.888 169.685 0 139.098 0Z"
            fill="white" />
        <path
            d="M295.735 167.951C288.006 175.666 277.524 180 266.595 180C248.299 180 232.787 168.097 227.407 151.625L193.817 185.158C209.142 209.114 236.01 225 266.595 225C289.479 225 311.427 215.924 327.609 199.77L470.573 57.0495C478.301 49.3343 488.783 45 499.713 45C522.473 45 540.923 63.4188 540.923 86.1398C540.923 97.0508 536.581 107.515 528.853 115.23L476.042 167.951C468.314 175.666 457.832 180 446.902 180C428.605 180 413.092 168.095 407.713 151.621L374.123 185.155C389.447 209.113 416.316 225 446.902 225C469.787 225 491.734 215.924 507.916 199.77L560.727 147.049C576.909 130.895 586 108.985 586 86.1398C586 38.566 547.368 0 499.713 0C476.828 0 454.881 9.07538 438.699 25.2297L295.735 167.951Z"
            fill="white" />
    </g>
    <defs>
        <clipPath id="clip0_9_17">
            <rect width="586" height="225" fill="white" />
        </clipPath>
    </defs>
</svg>